{"asset":{"version":"2.0","generator":"babylon.js glTF exporter for 3dsmax 2022 v20211102.1"},"scene":0,"scenes":[{"nodes":[0]}],"nodes":[{"children":[1,2,3,4,5,6,7,8,9,10,11,12,13,14,15,16,17,18,19,20,21],"mesh":0,"translation":[1.12174974E-33,0.0151001737,6.60049571E-10],"rotation":[3.09086268E-08,-0.7071068,0.7071068,3.09086232E-08],"scale":[2.54,2.54,2.54],"name":"M1A1_AbramsTank","extras":{"currentUVSet":"map1"}},{"mesh":1,"translation":[0.577515543,-0.00317472918,-0.008683188],"rotation":[1.77635684E-15,4.0233932E-23,-3.55271368E-15,1.0],"name":"RChain"},{"mesh":2,"translation":[0.574317157,1.24046946,-0.328530461],"rotation":[1.77635684E-15,4.0233932E-23,-3.55271368E-15,1.0],"name":"R9Wheel"},{"mesh":3,"translation":[0.568477333,0.900334835,-0.1570155],"rotation":[1.77635684E-15,4.0233932E-23,-3.55271368E-15,1.0],"name":"R8Wheel"},{"mesh":4,"translation":[0.568477452,0.620156467,-0.157015577],"rotation":[1.77635684E-15,4.0233932E-23,-3.55271368E-15,1.0],"name":"R7Wheel"},{"mesh":5,"translation":[0.568477452,0.325291544,-0.157015622],"rotation":[1.77635684E-15,4.0233932E-23,-3.55271368E-15,1.0],"name":"R6Wheel"},{"mesh":6,"translation":[0.5684775,0.0337848924,-0.157015622],"rotation":[1.77635684E-15,4.0233932E-23,-3.55271368E-15,1.0],"name":"R5Wheel"},{"mesh":7,"translation":[0.568477631,-0.2528597,-0.15701583],"rotation":[1.77635684E-15,4.0233932E-23,-3.55271368E-15,1.0],"name":"R4Wheel"},{"mesh":8,"translation":[0.5684776,-0.55678165,-0.15701586],"rotation":[1.77635684E-15,4.0233932E-23,-3.55271368E-15,1.0],"name":"R3Wheel"},{"mesh":9,"translation":[0.5684778,-0.919704556,-0.157015979],"rotation":[1.77635684E-15,4.0233932E-23,-3.55271368E-15,1.0],"name":"R2Wheel"},{"mesh":10,"translation":[0.56847775,-1.26525247,-0.336386263],"rotation":[1.77635684E-15,4.0233932E-23,-3.55271368E-15,1.0],"name":"R1Wheel"},{"mesh":11,"translation":[-0.5696762,-0.003174998,-0.00377097656],"rotation":[1.77635684E-15,4.0233932E-23,-3.55271368E-15,1.0],"name":"LChain"},{"mesh":12,"translation":[-0.569824159,1.240469,-0.3285306],"rotation":[1.77635684E-15,4.0233932E-23,-3.55271368E-15,1.0],"name":"L9Wheel"},{"mesh":13,"translation":[-0.5683034,0.900334656,-0.1570155],"rotation":[1.77635684E-15,4.0233932E-23,-3.55271368E-15,1.0],"name":"L8Wheel"},{"mesh":14,"translation":[-0.568303347,0.620156169,-0.157015622],"rotation":[1.77635684E-15,4.0233932E-23,-3.55271368E-15,1.0],"name":"L7Wheel"},{"mesh":15,"translation":[-0.568303347,0.325291336,-0.157015666],"rotation":[1.77635684E-15,4.0233932E-23,-3.55271368E-15,1.0],"name":"L6Wheel"},{"mesh":16,"translation":[-0.5683033,0.0337846354,-0.157015666],"rotation":[1.77635684E-15,4.0233932E-23,-3.55271368E-15,1.0],"name":"L5Wheel"},{"mesh":17,"translation":[-0.568303168,-0.252860069,-0.15701586],"rotation":[1.77635684E-15,4.0233932E-23,-3.55271368E-15,1.0],"name":"L4Wheel"},{"mesh":18,"translation":[-0.568303168,-0.556782,-0.157015935],"rotation":[1.77635684E-15,4.0233932E-23,-3.55271368E-15,1.0],"name":"L3Wheel"},{"mesh":19,"translation":[-0.568303049,-0.919705033,-0.157015979],"rotation":[1.77635684E-15,4.0233932E-23,-3.55271368E-15,1.0],"name":"L2Wheel"},{"mesh":20,"translation":[-0.568303,-1.26525283,-0.336386383],"rotation":[1.77635684E-15,4.0233932E-23,-3.55271368E-15,1.0],"name":"L1Wheel"},{"children":[22],"mesh":21,"translation":[0.0132953711,-0.130237117,-0.6920502],"rotation":[1.77635684E-15,4.0233932E-23,-3.55271368E-15,1.0],"name":"Turret"},{"mesh":22,"translation":[0.00365437265,-0.6681007,-0.08491249],"rotation":[1.77635684E-15,4.0233932E-23,-3.55271368E-15,1.0],"name":"Barrel"}],"meshes":[{"primitives":[{"attributes":{"POSITION":1,"NORMAL":2,"TEXCOORD_0":3},"indices":0,"material":0}],"name":"M1A1_AbramsTank"},{"primitives":[{"attributes":{"POSITION":5,"NORMAL":6,"TEXCOORD_0":7},"indices":4,"material":0}],"name":"RChain"},{"primitives":[{"attributes":{"POSITION":9,"NORMAL":10,"TEXCOORD_0":11},"indices":8,"material":0}],"name":"R9Wheel"},{"primitives":[{"attributes":{"POSITION":13,"NORMAL":14,"TEXCOORD_0":15},"indices":12,"material":0}],"name":"R8Wheel"},{"primitives":[{"attributes":{"POSITION":17,"NORMAL":18,"TEXCOORD_0":19},"indices":16,"material":0}],"name":"R7Wheel"},{"primitives":[{"attributes":{"POSITION":21,"NORMAL":22,"TEXCOORD_0":23},"indices":20,"material":0}],"name":"R6Wheel"},{"primitives":[{"attributes":{"POSITION":25,"NORMAL":26,"TEXCOORD_0":27},"indices":24,"material":0}],"name":"R5Wheel"},{"primitives":[{"attributes":{"POSITION":29,"NORMAL":30,"TEXCOORD_0":31},"indices":28,"material":0}],"name":"R4Wheel"},{"primitives":[{"attributes":{"POSITION":33,"NORMAL":34,"TEXCOORD_0":35},"indices":32,"material":0}],"name":"R3Wheel"},{"primitives":[{"attributes":{"POSITION":37,"NORMAL":38,"TEXCOORD_0":39},"indices":36,"material":0}],"name":"R2Wheel"},{"primitives":[{"attributes":{"POSITION":41,"NORMAL":42,"TEXCOORD_0":43},"indices":40,"material":0}],"name":"R1Wheel"},{"primitives":[{"attributes":{"POSITION":45,"NORMAL":46,"TEXCOORD_0":47},"indices":44,"material":0}],"name":"LChain"},{"primitives":[{"attributes":{"POSITION":49,"NORMAL":50,"TEXCOORD_0":51},"indices":48,"material":0}],"name":"L9Wheel"},{"primitives":[{"attributes":{"POSITION":53,"NORMAL":54,"TEXCOORD_0":55},"indices":52,"material":0}],"name":"L8Wheel"},{"primitives":[{"attributes":{"POSITION":57,"NORMAL":58,"TEXCOORD_0":59},"indices":56,"material":0}],"name":"L7Wheel"},{"primitives":[{"attributes":{"POSITION":61,"NORMAL":62,"TEXCOORD_0":63},"indices":60,"material":0}],"name":"L6Wheel"},{"primitives":[{"attributes":{"POSITION":65,"NORMAL":66,"TEXCOORD_0":67},"indices":64,"material":0}],"name":"L5Wheel"},{"primitives":[{"attributes":{"POSITION":69,"NORMAL":70,"TEXCOORD_0":71},"indices":68,"material":0}],"name":"L4Wheel"},{"primitives":[{"attributes":{"POSITION":73,"NORMAL":74,"TEXCOORD_0":75},"indices":72,"material":0}],"name":"L3Wheel"},{"primitives":[{"attributes":{"POSITION":77,"NORMAL":78,"TEXCOORD_0":79},"indices":76,"material":0}],"name":"L2Wheel"},{"primitives":[{"attributes":{"POSITION":81,"NORMAL":82,"TEXCOORD_0":83},"indices":80,"material":0}],"name":"L1Wheel"},{"primitives":[{"attributes":{"POSITION":85,"NORMAL":86,"TEXCOORD_0":87},"indices":84,"material":0}],"name":"Turret"},{"primitives":[{"attributes":{"POSITION":89,"NORMAL":90,"TEXCOORD_0":91},"indices":88,"material":0}],"name":"Barrel"}],"accessors":[{"bufferView":0,"componentType":5123,"count":25428,"type":"SCALAR","name":"accessorIndices"},{"bufferView":1,"componentType":5126,"count":13053,"max":[0.727830231,1.569094,-0.1536915],"min":[-0.72783035,-1.56909359,-0.6749433],"type":"VEC3","name":"accessorPositions"},{"bufferView":1,"byteOffset":156636,"componentType":5126,"count":13053,"type":"VEC3","name":"accessorNormals"},{"bufferView":2,"componentType":5126,"count":13053,"type":"VEC2","name":"accessorUVs"},{"bufferView":0,"byteOffset":50856,"componentType":5123,"count":59388,"type":"SCALAR","name":"accessorIndices"},{"bufferView":1,"byteOffset":313272,"componentType":5126,"count":30498,"max":[0.1337262,1.41246855,0.0144521091],"min":[-0.133726224,-1.41246855,-0.49538818],"type":"VEC3","name":"accessorPositions"},{"bufferView":1,"byteOffset":679248,"componentType":5126,"count":30498,"type":"VEC3","name":"accessorNormals"},{"bufferView":2,"byteOffset":104424,"componentType":5126,"count":30498,"type":"VEC2","name":"accessorUVs"},{"bufferView":0,"byteOffset":169632,"componentType":5123,"count":8916,"type":"SCALAR","name":"accessorIndices"},{"bufferView":1,"byteOffset":1045224,"componentType":5126,"count":3769,"max":[0.135166273,0.159648582,0.160723478],"min":[-0.135166273,-0.159648582,-0.160723537],"type":"VEC3","name":"accessorPositions"},{"bufferView":1,"byteOffset":1090452,"componentType":5126,"count":3769,"type":"VEC3","name":"accessorNormals"},{"bufferView":2,"byteOffset":348408,"componentType":5126,"count":3769,"type":"VEC2","name":"accessorUVs"},{"bufferView":0,"byteOffset":187464,"componentType":5123,"count":1815,"type":"SCALAR","name":"accessorIndices"},{"bufferView":1,"byteOffset":1135680,"componentType":5126,"count":656,"max":[0.100138091,0.1250528,0.125052825],"min":[-0.100138128,-0.125052869,-0.125052825],"type":"VEC3","name":"accessorPositions"},{"bufferView":1,"byteOffset":1143552,"componentType":5126,"count":656,"type":"VEC3","name":"accessorNormals"},{"bufferView":2,"byteOffset":378560,"componentType":5126,"count":656,"type":"VEC2","name":"accessorUVs"},{"bufferView":0,"byteOffset":191096,"componentType":5123,"count":1815,"type":"SCALAR","name":"accessorIndices"},{"bufferView":1,"byteOffset":1151424,"componentType":5126,"count":661,"max":[0.100138091,0.1250528,0.125052854],"min":[-0.100138053,-0.1250528,-0.12505281],"type":"VEC3","name":"accessorPositions"},{"bufferView":1,"byteOffset":1159356,"componentType":5126,"count":661,"type":"VEC3","name":"accessorNormals"},{"bufferView":2,"byteOffset":383808,"componentType":5126,"count":661,"type":"VEC2","name":"accessorUVs"},{"bufferView":0,"byteOffset":194728,"componentType":5123,"count":1815,"type":"SCALAR","name":"accessorIndices"},{"bufferView":1,"byteOffset":1167288,"componentType":5126,"count":663,"max":[0.100138091,0.1250528,0.125052854],"min":[-0.100138091,-0.12505281,-0.12505281],"type":"VEC3","name":"accessorPositions"},{"bufferView":1,"byteOffset":1175244,"componentType":5126,"count":663,"type":"VEC3","name":"accessorNormals"},{"bufferView":2,"byteOffset":389096,"componentType":5126,"count":663,"type":"VEC2","name":"accessorUVs"},{"bufferView":0,"byteOffset":198360,"componentType":5123,"count":1815,"type":"SCALAR","name":"accessorIndices"},{"bufferView":1,"byteOffset":1183200,"componentType":5126,"count":658,"max":[0.100138091,0.125052869,0.12505284],"min":[-0.100138053,-0.125052869,-0.125052825],"type":"VEC3","name":"accessorPositions"},{"bufferView":1,"byteOffset":1191096,"componentType":5126,"count":658,"type":"VEC3","name":"accessorNormals"},{"bufferView":2,"byteOffset":394400,"componentType":5126,"count":658,"type":"VEC2","name":"accessorUVs"},{"bufferView":0,"byteOffset":201992,"componentType":5123,"count":1815,"type":"SCALAR","name":"accessorIndices"},{"bufferView":1,"byteOffset":1198992,"componentType":5126,"count":658,"max":[0.100138091,0.125052825,0.1250528],"min":[-0.100138091,-0.125052825,-0.1250528],"type":"VEC3","name":"accessorPositions"},{"bufferView":1,"byteOffset":1206888,"componentType":5126,"count":658,"type":"VEC3","name":"accessorNormals"},{"bufferView":2,"byteOffset":399664,"componentType":5126,"count":658,"type":"VEC2","name":"accessorUVs"},{"bufferView":0,"byteOffset":205624,"componentType":5123,"count":1815,"type":"SCALAR","name":"accessorIndices"},{"bufferView":1,"byteOffset":1214784,"componentType":5126,"count":660,"max":[0.100138091,0.125052989,0.12505281],"min":[-0.100138053,-0.125052914,-0.1250528],"type":"VEC3","name":"accessorPositions"},{"bufferView":1,"byteOffset":1222704,"componentType":5126,"count":660,"type":"VEC3","name":"accessorNormals"},{"bufferView":2,"byteOffset":404928,"componentType":5126,"count":660,"type":"VEC2","name":"accessorUVs"},{"bufferView":0,"byteOffset":209256,"componentType":5123,"count":1815,"type":"SCALAR","name":"accessorIndices"},{"bufferView":1,"byteOffset":1230624,"componentType":5126,"count":656,"max":[0.100138128,0.1250528,0.12505281],"min":[-0.100138128,-0.1250528,-0.1250528],"type":"VEC3","name":"accessorPositions"},{"bufferView":1,"byteOffset":1238496,"componentType":5126,"count":656,"type":"VEC3","name":"accessorNormals"},{"bufferView":2,"byteOffset":410208,"componentType":5126,"count":656,"type":"VEC2","name":"accessorUVs"},{"bufferView":0,"byteOffset":212888,"componentType":5123,"count":1863,"type":"SCALAR","name":"accessorIndices"},{"bufferView":1,"byteOffset":1246368,"componentType":5126,"count":690,"max":[0.100138091,0.125052556,0.125052825],"min":[-0.100138091,-0.12505272,-0.125052869],"type":"VEC3","name":"accessorPositions"},{"bufferView":1,"byteOffset":1254648,"componentType":5126,"count":690,"type":"VEC3","name":"accessorNormals"},{"bufferView":2,"byteOffset":415456,"componentType":5126,"count":690,"type":"VEC2","name":"accessorUVs"},{"bufferView":0,"byteOffset":216616,"componentType":5123,"count":58458,"type":"SCALAR","name":"accessorIndices"},{"bufferView":1,"byteOffset":1262928,"componentType":5126,"count":30053,"max":[0.133726224,1.41246855,0.009539846],"min":[-0.133726269,-1.41246867,-0.5003004],"type":"VEC3","name":"accessorPositions"},{"bufferView":1,"byteOffset":1623564,"componentType":5126,"count":30053,"type":"VEC3","name":"accessorNormals"},{"bufferView":2,"byteOffset":420976,"componentType":5126,"count":30053,"type":"VEC2","name":"accessorUVs"},{"bufferView":0,"byteOffset":333532,"componentType":5123,"count":8916,"type":"SCALAR","name":"accessorIndices"},{"bufferView":1,"byteOffset":1984200,"componentType":5126,"count":3771,"max":[0.1351662,0.159648582,0.160723418],"min":[-0.135166243,-0.159648582,-0.160723612],"type":"VEC3","name":"accessorPositions"},{"bufferView":1,"byteOffset":2029452,"componentType":5126,"count":3771,"type":"VEC3","name":"accessorNormals"},{"bufferView":2,"byteOffset":661400,"componentType":5126,"count":3771,"type":"VEC2","name":"accessorUVs"},{"bufferView":0,"byteOffset":351364,"componentType":5123,"count":1815,"type":"SCALAR","name":"accessorIndices"},{"bufferView":1,"byteOffset":2074704,"componentType":5126,"count":657,"max":[0.100137979,0.12505272,0.125052825],"min":[-0.100137934,-0.1250528,-0.125052825],"type":"VEC3","name":"accessorPositions"},{"bufferView":1,"byteOffset":2082588,"componentType":5126,"count":657,"type":"VEC3","name":"accessorNormals"},{"bufferView":2,"byteOffset":691568,"componentType":5126,"count":657,"type":"VEC2","name":"accessorUVs"},{"bufferView":0,"byteOffset":354996,"componentType":5123,"count":1815,"type":"SCALAR","name":"accessorIndices"},{"bufferView":1,"byteOffset":2090472,"componentType":5126,"count":655,"max":[0.100137979,0.12505272,0.125052825],"min":[-0.100138016,-0.1250528,-0.125052854],"type":"VEC3","name":"accessorPositions"},{"bufferView":1,"byteOffset":2098332,"componentType":5126,"count":655,"type":"VEC3","name":"accessorNormals"},{"bufferView":2,"byteOffset":696824,"componentType":5126,"count":655,"type":"VEC2","name":"accessorUVs"},{"bufferView":0,"byteOffset":358628,"componentType":5123,"count":1815,"type":"SCALAR","name":"accessorIndices"},{"bufferView":1,"byteOffset":2106192,"componentType":5126,"count":659,"max":[0.100137979,0.125052825,0.12505281],"min":[-0.100138016,-0.125052825,-0.125052854],"type":"VEC3","name":"accessorPositions"},{"bufferView":1,"byteOffset":2114100,"componentType":5126,"count":659,"type":"VEC3","name":"accessorNormals"},{"bufferView":2,"byteOffset":702064,"componentType":5126,"count":659,"type":"VEC2","name":"accessorUVs"},{"bufferView":0,"byteOffset":362260,"componentType":5123,"count":1815,"type":"SCALAR","name":"accessorIndices"},{"bufferView":1,"byteOffset":2122008,"componentType":5126,"count":657,"max":[0.100138053,0.125052854,0.12505284],"min":[-0.100138053,-0.125052854,-0.125052825],"type":"VEC3","name":"accessorPositions"},{"bufferView":1,"byteOffset":2129892,"componentType":5126,"count":657,"type":"VEC3","name":"accessorNormals"},{"bufferView":2,"byteOffset":707336,"componentType":5126,"count":657,"type":"VEC2","name":"accessorUVs"},{"bufferView":0,"byteOffset":365892,"componentType":5123,"count":1815,"type":"SCALAR","name":"accessorIndices"},{"bufferView":1,"byteOffset":2137776,"componentType":5126,"count":661,"max":[0.100137979,0.12505281,0.1250528],"min":[-0.100137979,-0.1250528,-0.1250528],"type":"VEC3","name":"accessorPositions"},{"bufferView":1,"byteOffset":2145708,"componentType":5126,"count":661,"type":"VEC3","name":"accessorNormals"},{"bufferView":2,"byteOffset":712592,"componentType":5126,"count":661,"type":"VEC2","name":"accessorUVs"},{"bufferView":0,"byteOffset":369524,"componentType":5123,"count":1815,"type":"SCALAR","name":"accessorIndices"},{"bufferView":1,"byteOffset":2153640,"componentType":5126,"count":655,"max":[0.100138053,0.125052914,0.12505281],"min":[-0.100138016,-0.125052825,-0.1250528],"type":"VEC3","name":"accessorPositions"},{"bufferView":1,"byteOffset":2161500,"componentType":5126,"count":655,"type":"VEC3","name":"accessorNormals"},{"bufferView":2,"byteOffset":717880,"componentType":5126,"count":655,"type":"VEC2","name":"accessorUVs"},{"bufferView":0,"byteOffset":373156,"componentType":5123,"count":1815,"type":"SCALAR","name":"accessorIndices"},{"bufferView":1,"byteOffset":2169360,"componentType":5126,"count":661,"max":[0.100137979,0.12505272,0.12505281],"min":[-0.100137934,-0.12505272,-0.1250528],"type":"VEC3","name":"accessorPositions"},{"bufferView":1,"byteOffset":2177292,"componentType":5126,"count":661,"type":"VEC3","name":"accessorNormals"},{"bufferView":2,"byteOffset":723120,"componentType":5126,"count":661,"type":"VEC2","name":"accessorUVs"},{"bufferView":0,"byteOffset":376788,"componentType":5123,"count":1863,"type":"SCALAR","name":"accessorIndices"},{"bufferView":1,"byteOffset":2185224,"componentType":5126,"count":691,"max":[0.100137979,0.125052646,0.12505278],"min":[-0.100137979,-0.12505272,-0.1250528],"type":"VEC3","name":"accessorPositions"},{"bufferView":1,"byteOffset":2193516,"componentType":5126,"count":691,"type":"VEC3","name":"accessorNormals"},{"bufferView":2,"byteOffset":728408,"componentType":5126,"count":691,"type":"VEC2","name":"accessorUVs"},{"bufferView":0,"byteOffset":380516,"componentType":5123,"count":29511,"type":"SCALAR","name":"accessorIndices"},{"bufferView":1,"byteOffset":2201808,"componentType":5126,"count":12478,"max":[0.6944019,1.26319242,0.122607574],"min":[-0.6944019,-0.781005561,-0.4680236],"type":"VEC3","name":"accessorPositions"},{"bufferView":1,"byteOffset":2351544,"componentType":5126,"count":12478,"type":"VEC3","name":"accessorNormals"},{"bufferView":2,"byteOffset":733936,"componentType":5126,"count":12478,"type":"VEC2","name":"accessorUVs"},{"bufferView":0,"byteOffset":439540,"componentType":5123,"count":3294,"type":"SCALAR","name":"accessorIndices"},{"bufferView":1,"byteOffset":2501280,"componentType":5126,"count":1494,"max":[0.119475193,0.09069031,0.1661721],"min":[-0.119475044,-1.54688108,-0.30372566],"type":"VEC3","name":"accessorPositions"},{"bufferView":1,"byteOffset":2519208,"componentType":5126,"count":1494,"type":"VEC3","name":"accessorNormals"},{"bufferView":2,"byteOffset":833760,"componentType":5126,"count":1494,"type":"VEC2","name":"accessorUVs"}],"bufferViews":[{"buffer":0,"byteLength":446128,"name":"bufferViewScalar"},{"buffer":0,"byteOffset":446128,"byteLength":2537136,"byteStride":12,"name":"bufferViewFloatVec3"},{"buffer":0,"byteOffset":2983264,"byteLength":845712,"byteStride":8,"name":"bufferViewFloatVec2"}],"buffers":[{"uri":"m1a1.bin","byteLength":3828976}],"materials":[{"pbrMetallicRoughness":{"baseColorFactor":[0.5,0.5,0.5,1.0],"metallicFactor":0.0,"roughnessFactor":0.5678072},"doubleSided":true,"name":"lambert2","extras":{"babylonSeparateCullingPass":false}}]}